HIERARCHY
ROOT Hips
{
	OFFSET	0.00	0.00	0.00
	CHANNELS 6 Xposition Yposition Zposition Zrotation Xrotation Yrotation
	JOINT Spine
	{
		OFFSET	 0.00	0.01	 0.00
		CHANNELS 3 Zrotation Xrotation Yrotation
		JOINT Spine1
		{
			OFFSET	 0.00	 2.45913012437421	 0.00
			CHANNELS 3 Zrotation Xrotation Yrotation
            JOINT Neck
            {
                OFFSET	 0.00	 2.48462964506057	 0.00
                CHANNELS 3 Zrotation Xrotation Yrotation
                JOINT Head
                {
                    OFFSET	 0.00	 0.927524780924562	 0.00
                    CHANNELS 3 Zrotation Xrotation Yrotation
                    End Site 
                    {
                        OFFSET	 0.00	 1.14999962169752	 0.00
                    }
                }
            }
			JOINT LeftShoulder
			{
				OFFSET	 0.00	 2.48462964506057	 0.00
				CHANNELS 3 Zrotation Xrotation Yrotation
				JOINT LeftUpArm
				{
					OFFSET	 0.00	 1.24881979654096	 0.00
					CHANNELS 3 Zrotation Xrotation Yrotation
					JOINT LeftForeArm
					{
						OFFSET	 0.00	2.59758046908119	 0.00
						CHANNELS 3 Zrotation Xrotation Yrotation
						JOINT LeftHand
						{
							OFFSET	 0.00	2.45542024364365	 0.00
							CHANNELS 3 Zrotation Xrotation Yrotation
							JOINT LeftHandThumb 
							{
								OFFSET	 0.00	0.00	 0.00
								CHANNELS 3 Zrotation Xrotation Yrotation
								End Site
								{
									OFFSET	 0.00	0.00	1.00000003353624
								}
							}
							JOINT L_Wrist_End 
							{
								OFFSET	 0.00	0.99999967115358	 0.00
								CHANNELS 3 Zrotation Xrotation Yrotation
								End Site 
								{
									OFFSET	 0.00	 0.00	 0.00
								}
							}
						}
					}
				}
			}
			JOINT RightShoulder
			{
				OFFSET	 0.00	 2.48462964506057	 0.00
				CHANNELS 3 Zrotation Xrotation Yrotation
				JOINT RightUpArm
				{
					OFFSET	 0.00	 1.24881979654096	 0.00
					CHANNELS 3 Zrotation Xrotation Yrotation
					JOINT RightForeArm
					{
						OFFSET	 0.00	2.59758046908119	 0.00
						CHANNELS 3 Zrotation Xrotation Yrotation
						JOINT RightHand
						{
							OFFSET	 0.00	2.45542024364365	 0.00
							CHANNELS 3 Zrotation Xrotation Yrotation
							JOINT RightHandThumb 
							{
								OFFSET	 0.00	0.00	 0.00
								CHANNELS 3 Zrotation Xrotation Yrotation
								End Site
								{
									OFFSET	 0.00	0.00	1.00000003353624
								}
							}
							JOINT R_Wrist_End 
							{
								OFFSET	 0.00	0.99999967115358	 0.00
								CHANNELS 3 Zrotation Xrotation Yrotation
								End Site 
								{
									OFFSET	 0.00	 0.00	 0.00
								}
							}
						}
					}
				}
			}
		}
	}
	JOINT LeftUpLeg
	{
		OFFSET	 1.2719394002717	 0.00	 0.00
		CHANNELS 3 Zrotation Xrotation Yrotation
		JOINT LeftLowLeg
		{
			OFFSET	 0.00	-4.3429100912261	 0.00
			CHANNELS 3 Zrotation Xrotation Yrotation
			JOINT LeftFoot
			{
				OFFSET	 0.00	-4.48767017425826	 0.00
				CHANNELS 3 Zrotation Xrotation Yrotation
				JOINT LeftToeBase
                {
                    OFFSET	 0.00	0.00	 1.51507020887566
                    CHANNELS 3 Zrotation Xrotation Yrotation
                    End Site 
                    {
                        OFFSET	 0.00	0.00	 0.75000010571191
                    }
                }
			}
		}
	}
	JOINT RightUpLeg
	{
		OFFSET	 -1.2719393604653	 0.00	 0.00
		CHANNELS 3 Zrotation Xrotation Yrotation
		JOINT RightLowLeg
		{
			OFFSET	 0.00	-4.3429100912261	 0.00
			CHANNELS 3 Zrotation Xrotation Yrotation
			JOINT RightFoot
			{
				OFFSET	 0.00	-4.48767017425826	 0.00
				CHANNELS 3 Zrotation Xrotation Yrotation
				JOINT RightToeBase
                {
                    OFFSET	 0.00	0.00	 1.51507020887566
                    CHANNELS 3 Zrotation Xrotation Yrotation
                    End Site 
                    {
                        OFFSET	 0.00	0.00	 0.749999965609858
                    }
                }   
			}
		}
	}
}
MOTION 
Frames:	6 
Frame Time: 0.02 
  -1.6501300048828125 -5.377869873046875 9.219810180664062 -42.5288 82.6751 112.362 4.34925 -16.699 -2.23024 -2.72235 9.44707 3.27462 64.6132 33.078 -51.4079 60.6527 -60.6824 1149.87 -100.9756 1.6926 5.98152 -65.3924 2.17212 -5.41303 0.0 91.5071 0.0 50.0256 60.162 -179.684 0.0 0.0 0.0 0.0 0.0 0.0 96.28812 -2.64473 -2.40162 72.305 -0.181719 -352.958 0.0 120.055 0.0 10.1474 -60.9864 63.1438 0.0 0.0 0.0 0.0 0.0 0.0 3.28042 3.8573 -32.8933 0.0 22.0832 0.0 3.97373 -14.163799 22.1203 0.0 -13.59601 0.0 10.5164 -19.8426 396.59 0.0 22.9351 0.0 14.935 7.22309 -7.60095 0.0 -21.57471 0.0 
  -1.5669700622558593 -5.489450073242187 9.223189697265624 -41.6053 82.1319 112.878 4.54713 -16.8398 -2.64344 -2.56363 9.21296 2.66146 64.1895 33.2355 -50.9952 60.9255 -60.6894 1149.84 -100.5588 1.42375 6.35793 -65.8417 2.05447 -5.87126 0.0 93.7582 0.0 44.1572 62.9571 -178.485 0.0 0.0 0.0 0.0 0.0 0.0 95.92802 -2.44172 -2.88649 72.2632 -0.887116 -353.315 0.0 121.873 0.0 6.85702 -56.336 55.034 0.0 0.0 0.0 0.0 0.0 0.0 3.85767 3.2367 -33.4339 0.0 24.2051 0.0 3.31178 -14.4263 21.5417 0.0 -14.392275 0.0 11.1616 -19.2931 395.823 0.0 23.1175 0.0 15.0001 6.44454 -8.0626 0.0 -21.10854 0.0 
  -1.4891299438476562 -5.594749755859375 9.236630249023438 -38.1082 81.7966 110.862 4.6969 -16.547 -3.0703 -2.41563 9.20001 2.049 63.8475 33.2116 -50.6199 61.552 -60.5067 1150.51 -100.1135 1.03749 6.27368 -66.3688 1.9085 -7.11693 0.0 96.2322 0.0 34.7459 64.8542 -167.52 0.0 0.0 0.0 0.0 0.0 0.0 95.83403 -2.41493 -2.97267 72.3195 -1.29912 -352.647 0.0 123.846 0.0 5.65812 -51.6544 51.4675 0.0 0.0 0.0 0.0 0.0 0.0 4.34769 2.66748 -33.4017 0.0 26.7608 0.0 2.27189 -14.2803 20.1763 0.0 -15.689539 0.0 11.7555 -18.3113 395.007 0.0 23.2045 0.0 14.4257 6.03071 -8.81585 0.0 -21.27692 0.0 
  -1.4172900390625 -5.6952099609375 9.25593994140625 -35.3182 81.6075 109.576 4.55316 -16.1822 -3.56395 -1.96993 9.0509 1.60655 63.3172 33.2503 -50.2186 61.9092 -60.511 1150.64 -99.88305 0.884237 6.18587 -66.6742 2.09351 -8.54674 0.0 98.684 0.0 45.7327 67.1059 -179.205 0.0 0.0 0.0 0.0 0.0 0.0 95.68909 -2.53116 -2.89538 72.3453 -1.42477 -351.812 0.0 125.853 0.0 3.25391 -48.2826 51.4363 0.0 0.0 0.0 0.0 0.0 0.0 4.62139 1.69215 -32.861 0.0 29.7593 0.0 1.09034 -13.5781 18.3099 0.0 -17.66259 0.0 12.0771 -17.26 394.086 0.0 22.9627 0.0 13.8867 5.5825396 -9.58083 0.0 -20.97708 0.0 
  -1.3520199584960937 -5.786290283203125 9.27719970703125 -33.8596 81.4353 109.638 4.5892 -15.9226 -3.8896 -1.8928 8.86556 1.18168 62.8329 33.237 -49.9219 61.728 -60.4672 1150.16 -99.59715 0.78283 5.86667 -66.6044 2.21943 -10.0706 0.0 101.72 0.0 46.9528 67.5044 -180.516 0.0 0.0 0.0 0.0 0.0 0.0 95.65387 -2.49218 -2.82472 72.0555 -1.25205 -351.07 0.0 128.224 0.0 -2.32069 -48.0215 51.5336 0.0 0.0 0.0 0.0 0.0 0.0 4.7492 0.143347 -31.7749 0.0 33.2037 0.0 -0.308013 -12.4235 16.0658 0.0 -20.20945 0.0 12.295 -16.3507 393.281 0.0 22.5191 0.0 13.2916 5.24774 -10.5223 0.0 -20.5667 0.0 
  -1.2905099487304688 -5.8685400390625 9.298159790039062 -33.1366 81.2971 110.409 4.64365 -15.7993 -4.06675 -1.84016 8.85222 0.934695 62.2562 33.0058 -49.7232 61.4089 -60.3685 1149.62 -99.34552 0.584046 5.29499 -66.2954 2.5043 -12.1406 0.0 104.344 0.0 46.4028 69.1682 -179.044 0.0 0.0 0.0 0.0 0.0 0.0 95.35185 -2.57492 -2.54222 71.6964 -1.10414 -350.15 0.0 130.273 0.0 -9.81565 -47.6911 48.1293 0.0 0.0 0.0 0.0 0.0 0.0 4.79913 -1.82538 -30.1115 0.0 36.9321 0.0 -1.96205 -10.9886 13.5994 0.0 -22.42248 0.0 12.4072 -15.4688 392.747 0.0 21.8136 0.0 12.9209 5.03436 -11.6094 0.0 -20.68611 0.0 
